<mxfile host="app.diagrams.net" agent="Mozilla/5.0 (X11; Ubuntu; Linux x86_64; rv:132.0) Gecko/20100101 Firefox/132.0" version="24.8.4">
  <diagram name="Page-1" id="GWP0L3FjsrWtVJWvDsT7">
    <mxGraphModel dx="1434" dy="1922" grid="1" gridSize="10" guides="1" tooltips="1" connect="1" arrows="1" fold="1" page="1" pageScale="1" pageWidth="850" pageHeight="1100" math="0" shadow="0">
      <root>
        <mxCell id="0" />
        <mxCell id="1" parent="0" />
        <mxCell id="z2eoowUua1yX7PWgpwqR-1" value="" style="ellipse;whiteSpace=wrap;html=1;aspect=fixed;" vertex="1" parent="1">
          <mxGeometry x="90" y="140" width="80" height="80" as="geometry" />
        </mxCell>
        <mxCell id="z2eoowUua1yX7PWgpwqR-2" value="10.10.0.40" style="text;html=1;align=center;verticalAlign=middle;whiteSpace=wrap;rounded=0;" vertex="1" parent="1">
          <mxGeometry x="100" y="220" width="60" height="30" as="geometry" />
        </mxCell>
        <mxCell id="z2eoowUua1yX7PWgpwqR-3" value="23,80" style="ellipse;whiteSpace=wrap;html=1;aspect=fixed;" vertex="1" parent="1">
          <mxGeometry x="240" y="140" width="80" height="80" as="geometry" />
        </mxCell>
        <mxCell id="z2eoowUua1yX7PWgpwqR-4" value="Rick&lt;br&gt;&lt;div&gt;10.50.24.223&lt;/div&gt;" style="text;html=1;align=center;verticalAlign=middle;whiteSpace=wrap;rounded=0;" vertex="1" parent="1">
          <mxGeometry x="250" y="111" width="60" height="30" as="geometry" />
        </mxCell>
        <mxCell id="z2eoowUua1yX7PWgpwqR-5" value="" style="endArrow=none;html=1;rounded=0;" edge="1" parent="1">
          <mxGeometry width="50" height="50" relative="1" as="geometry">
            <mxPoint x="180" y="205" as="sourcePoint" />
            <mxPoint x="230" y="155" as="targetPoint" />
          </mxGeometry>
        </mxCell>
        <mxCell id="z2eoowUua1yX7PWgpwqR-6" value="10.1.2.17" style="text;html=1;align=center;verticalAlign=middle;whiteSpace=wrap;rounded=0;" vertex="1" parent="1">
          <mxGeometry x="250" y="220" width="60" height="30" as="geometry" />
        </mxCell>
        <mxCell id="z2eoowUua1yX7PWgpwqR-7" value="&lt;div&gt;BH&lt;/div&gt;&lt;div&gt;10.50.23.151&lt;br&gt;&lt;/div&gt;" style="text;html=1;align=center;verticalAlign=middle;whiteSpace=wrap;rounded=0;" vertex="1" parent="1">
          <mxGeometry x="100" y="110" width="60" height="30" as="geometry" />
        </mxCell>
        <mxCell id="z2eoowUua1yX7PWgpwqR-8" value="" style="shape=flexArrow;endArrow=classic;html=1;rounded=0;" edge="1" parent="1">
          <mxGeometry width="50" height="50" relative="1" as="geometry">
            <mxPoint x="130" y="90" as="sourcePoint" />
            <mxPoint x="290" y="90" as="targetPoint" />
          </mxGeometry>
        </mxCell>
        <mxCell id="z2eoowUua1yX7PWgpwqR-9" value="52001 -&amp;gt; Rick:22" style="text;html=1;align=center;verticalAlign=middle;whiteSpace=wrap;rounded=0;" vertex="1" parent="1">
          <mxGeometry x="150" y="60" width="110" height="30" as="geometry" />
        </mxCell>
        <mxCell id="z2eoowUua1yX7PWgpwqR-10" value="" style="shape=flexArrow;endArrow=classic;html=1;rounded=0;" edge="1" parent="1">
          <mxGeometry width="50" height="50" relative="1" as="geometry">
            <mxPoint x="110" y="280" as="sourcePoint" />
            <mxPoint x="740" y="280" as="targetPoint" />
          </mxGeometry>
        </mxCell>
        <mxCell id="z2eoowUua1yX7PWgpwqR-11" value="Dynamic" style="text;html=1;align=center;verticalAlign=middle;whiteSpace=wrap;rounded=0;" vertex="1" parent="1">
          <mxGeometry x="185" y="250" width="60" height="30" as="geometry" />
        </mxCell>
        <mxCell id="z2eoowUua1yX7PWgpwqR-13" value="21,80,2222" style="ellipse;whiteSpace=wrap;html=1;aspect=fixed;" vertex="1" parent="1">
          <mxGeometry x="390" y="140" width="80" height="80" as="geometry" />
        </mxCell>
        <mxCell id="z2eoowUua1yX7PWgpwqR-14" value="Morty&lt;br&gt;&lt;div&gt;10.1.2.18&lt;/div&gt;" style="text;html=1;align=center;verticalAlign=middle;whiteSpace=wrap;rounded=0;" vertex="1" parent="1">
          <mxGeometry x="400" y="110" width="60" height="30" as="geometry" />
        </mxCell>
        <mxCell id="z2eoowUua1yX7PWgpwqR-16" value="" style="endArrow=none;html=1;rounded=0;" edge="1" parent="1">
          <mxGeometry width="50" height="50" relative="1" as="geometry">
            <mxPoint x="330" y="210" as="sourcePoint" />
            <mxPoint x="380" y="160" as="targetPoint" />
          </mxGeometry>
        </mxCell>
        <mxCell id="z2eoowUua1yX7PWgpwqR-18" value="172.16.10.120/28" style="text;html=1;align=center;verticalAlign=middle;whiteSpace=wrap;rounded=0;" vertex="1" parent="1">
          <mxGeometry x="400" y="220" width="60" height="30" as="geometry" />
        </mxCell>
        <mxCell id="z2eoowUua1yX7PWgpwqR-19" value="" style="shape=flexArrow;endArrow=classic;html=1;rounded=0;" edge="1" parent="1">
          <mxGeometry width="50" height="50" relative="1" as="geometry">
            <mxPoint x="120" y="40" as="sourcePoint" />
            <mxPoint x="450" y="40" as="targetPoint" />
          </mxGeometry>
        </mxCell>
        <mxCell id="z2eoowUua1yX7PWgpwqR-20" value="52002 -&amp;gt; Morty:2222" style="text;html=1;align=center;verticalAlign=middle;whiteSpace=wrap;rounded=0;" vertex="1" parent="1">
          <mxGeometry x="140" y="10" width="150" height="30" as="geometry" />
        </mxCell>
        <mxCell id="z2eoowUua1yX7PWgpwqR-21" value="21,80,2323" style="ellipse;whiteSpace=wrap;html=1;aspect=fixed;" vertex="1" parent="1">
          <mxGeometry x="540" y="141" width="80" height="80" as="geometry" />
        </mxCell>
        <mxCell id="z2eoowUua1yX7PWgpwqR-22" value="" style="endArrow=none;html=1;rounded=0;" edge="1" parent="1">
          <mxGeometry width="50" height="50" relative="1" as="geometry">
            <mxPoint x="480" y="200" as="sourcePoint" />
            <mxPoint x="530" y="150" as="targetPoint" />
          </mxGeometry>
        </mxCell>
        <mxCell id="z2eoowUua1yX7PWgpwqR-23" value="Jerry&lt;br&gt;&lt;div&gt;172.16.10.121&lt;/div&gt;" style="text;html=1;align=center;verticalAlign=middle;whiteSpace=wrap;rounded=0;" vertex="1" parent="1">
          <mxGeometry x="550" y="111" width="60" height="30" as="geometry" />
        </mxCell>
        <mxCell id="z2eoowUua1yX7PWgpwqR-24" value="&lt;div&gt;192.168.10.71/26&lt;/div&gt;" style="text;html=1;align=center;verticalAlign=middle;whiteSpace=wrap;rounded=0;" vertex="1" parent="1">
          <mxGeometry x="550" y="221" width="60" height="30" as="geometry" />
        </mxCell>
        <mxCell id="z2eoowUua1yX7PWgpwqR-25" value="" style="shape=flexArrow;endArrow=classic;html=1;rounded=0;" edge="1" parent="1">
          <mxGeometry width="50" height="50" relative="1" as="geometry">
            <mxPoint x="120" y="-20" as="sourcePoint" />
            <mxPoint x="610" y="-20" as="targetPoint" />
          </mxGeometry>
        </mxCell>
        <mxCell id="z2eoowUua1yX7PWgpwqR-26" value="52003 -&amp;gt; Jerry:2323" style="text;html=1;align=center;verticalAlign=middle;whiteSpace=wrap;rounded=0;" vertex="1" parent="1">
          <mxGeometry x="120" y="-60" width="190" height="30" as="geometry" />
        </mxCell>
        <mxCell id="z2eoowUua1yX7PWgpwqR-27" value="21.22.80" style="ellipse;whiteSpace=wrap;html=1;aspect=fixed;" vertex="1" parent="1">
          <mxGeometry x="700" y="141" width="80" height="80" as="geometry" />
        </mxCell>
        <mxCell id="z2eoowUua1yX7PWgpwqR-28" value="&lt;div&gt;Beth&lt;/div&gt;&lt;div&gt;192.168.10.69&lt;/div&gt;" style="text;html=1;align=center;verticalAlign=middle;whiteSpace=wrap;rounded=0;" vertex="1" parent="1">
          <mxGeometry x="710" y="110" width="60" height="30" as="geometry" />
        </mxCell>
        <mxCell id="z2eoowUua1yX7PWgpwqR-29" value="" style="endArrow=none;html=1;rounded=0;" edge="1" parent="1">
          <mxGeometry width="50" height="50" relative="1" as="geometry">
            <mxPoint x="640" y="200" as="sourcePoint" />
            <mxPoint x="690" y="150" as="targetPoint" />
          </mxGeometry>
        </mxCell>
        <mxCell id="z2eoowUua1yX7PWgpwqR-31" value="" style="shape=flexArrow;endArrow=classic;html=1;rounded=0;" edge="1" parent="1">
          <mxGeometry width="50" height="50" relative="1" as="geometry">
            <mxPoint x="110" y="-80" as="sourcePoint" />
            <mxPoint x="750" y="-80" as="targetPoint" />
          </mxGeometry>
        </mxCell>
        <mxCell id="z2eoowUua1yX7PWgpwqR-32" value="52004 -&amp;gt; Beth:22" style="text;html=1;align=center;verticalAlign=middle;whiteSpace=wrap;rounded=0;" vertex="1" parent="1">
          <mxGeometry x="155" y="-110" width="105" height="30" as="geometry" />
        </mxCell>
      </root>
    </mxGraphModel>
  </diagram>
</mxfile>
